<?xml version="1.0" standalone="no"?>
<!DOCTYPE svg PUBLIC "-//W3C//DTD SVG 20010904//EN"
 "http://www.w3.org/TR/2001/REC-SVG-20010904/DTD/svg10.dtd">
<svg version="1.0" xmlns="http://www.w3.org/2000/svg"
 width="180.000000pt" height="180.000000pt" viewBox="0 0 180.000000 180.000000"
 preserveAspectRatio="xMidYMid meet">
<metadata>
Created by potrace 1.16, written by Peter Selinger 2001-2019
</metadata>
<g transform="translate(0.000000,180.000000) scale(0.100000,-0.100000)"
fill="#000000" stroke="none">
<path d="M872 1388 c-15 -15 -16 -50 -1 -65 6 -6 9 -21 7 -33 -2 -18 -16 -26
-64 -41 -214 -66 -284 -339 -127 -496 63 -63 121 -87 213 -87 92 0 150 24 213
87 121 121 113 320 -18 435 -44 38 -117 72 -157 72 -13 0 -18 8 -18 29 0 17 5
33 10 36 14 9 13 48 -2 63 -7 7 -19 12 -28 12 -9 0 -21 -5 -28 -12z m106 -267
c20 -10 45 -27 54 -38 25 -27 48 -87 48 -123 0 -73 -61 -149 -136 -170 -107
-30 -225 60 -224 172 0 39 30 106 56 129 59 51 138 63 202 30z"/>
</g>
</svg>
