<?xml version="1.0" standalone="no"?>
<!DOCTYPE svg PUBLIC "-//W3C//DTD SVG 20010904//EN"
 "http://www.w3.org/TR/2001/REC-SVG-20010904/DTD/svg10.dtd">
<svg version="1.0" xmlns="http://www.w3.org/2000/svg"
 width="219.000000pt" height="163.000000pt" viewBox="0 0 219.000000 163.000000"
 preserveAspectRatio="xMidYMid meet">

<g transform="translate(0.000000,163.000000) scale(0.100000,-0.100000)"
fill="#000000" stroke="none">
<path d="M945 1596 c-141 -33 -255 -97 -351 -198 -324 -339 -227 -890 192
-1094 202 -99 407 -98 613 2 244 119 394 377 378 654 -10 180 -86 342 -219
466 -75 69 -142 110 -248 149 -93 34 -267 44 -365 21z m310 -22 c217 -53 393
-215 471 -434 36 -99 45 -272 20 -370 -78 -308 -345 -520 -656 -520 -308 0
-568 202 -651 507 -28 101 -23 273 11 373 113 337 460 528 805 444z"/>
<path d="M1025 1520 c0 -33 4 -50 13 -50 6 0 12 9 12 21 0 15 5 19 15 15 9 -3
15 0 15 9 0 9 -6 12 -15 9 -11 -4 -15 0 -15 16 0 19 4 21 26 16 17 -5 23 -3
19 4 -3 5 -21 10 -38 10 -32 0 -32 0 -32 -50z"/>
<path d="M900 1531 c-14 -27 -13 -47 6 -65 24 -24 61 -20 80 9 15 23 15 27 0
50 -9 14 -23 25 -32 25 -14 0 -14 -2 1 -16 22 -23 16 -69 -10 -69 -22 0 -37
41 -23 68 12 24 -9 22 -22 -2z"/>
<path d="M1161 1511 c-19 -23 -30 -45 -26 -49 3 -4 11 1 16 10 11 19 39 13 39
-8 0 -8 7 -14 15 -14 11 0 13 8 8 33 -14 72 -16 73 -52 28z m29 -12 c0 -5 -4
-9 -10 -9 -5 0 -10 7 -10 16 0 8 5 12 10 9 6 -3 10 -10 10 -16z"/>
<path d="M1266 1504 c-9 -8 -16 -22 -16 -30 0 -22 19 -54 32 -54 9 0 9 3 0 12
-18 18 -15 36 13 63 22 22 22 25 5 25 -10 0 -26 -7 -34 -16z"/>
<path d="M805 1500 c-3 -5 -1 -10 4 -10 6 0 11 5 11 10 0 6 -2 10 -4 10 -3 0
-8 -4 -11 -10z"/>
<path d="M1337 1489 c3 -10 9 -16 14 -13 13 8 11 21 -5 27 -10 4 -12 0 -9 -14z"/>
<path d="M749 1468 c-12 -8 -12 -10 1 -15 8 -4 27 -18 42 -33 14 -15 32 -24
38 -20 7 4 2 15 -14 31 -43 42 -52 48 -67 37z"/>
<path d="M1380 1436 c-11 -19 -25 -36 -30 -38 -6 -2 -1 -9 10 -16 11 -7 19 -9
18 -5 -3 14 37 73 46 70 20 -6 17 -29 -3 -34 -15 -4 -21 -13 -21 -34 0 -15 5
-31 10 -34 6 -4 10 7 10 25 0 17 4 29 9 26 5 -3 14 1 21 9 14 17 2 38 -31 55
-14 8 -22 3 -39 -24z"/>
<path d="M1310 1451 c0 -5 -3 -16 -6 -25 -4 -11 -1 -16 10 -16 9 0 16 2 16 4
0 2 3 11 6 19 3 8 -2 17 -10 20 -9 4 -16 2 -16 -2z"/>
<path d="M670 1412 c-22 -19 -30 -31 -22 -36 7 -4 12 -1 12 8 0 25 13 19 40
-18 17 -23 29 -31 36 -25 8 7 3 18 -17 40 -26 28 -32 58 -8 44 5 -4 9 -1 9 4
0 18 -14 13 -50 -17z"/>
<path d="M965 1426 c-166 -41 -302 -167 -361 -335 -29 -81 -33 -218 -8 -302
39 -132 146 -262 265 -322 197 -99 437 -58 592 101 26 26 53 56 61 67 11 16
16 17 29 7 13 -11 15 -10 10 7 -3 12 -10 18 -17 15 -6 -3 -3 1 7 10 11 8 25
12 33 9 17 -6 18 -23 2 -23 -9 0 -8 -3 2 -10 9 -6 17 -5 22 3 5 9 10 9 20 -1
11 -11 9 -16 -7 -29 -12 -9 -14 -13 -5 -11 8 3 21 15 27 29 14 27 13 28 -49
62 l-33 19 35 14 c30 13 35 13 42 -1 12 -20 34 -19 42 1 9 24 7 28 -7 15 -15
-12 -27 -5 -27 14 0 8 10 10 25 7 43 -8 28 17 -17 29 -56 14 -57 15 -51 39 3
11 10 17 16 13 19 -11 87 -21 87 -12 0 5 -13 9 -29 9 -39 0 -61 9 -61 25 0 21
11 24 58 15 37 -6 42 -5 42 11 0 16 -8 19 -43 19 -24 0 -48 -5 -55 -12 -9 -9
-12 -4 -12 25 0 38 5 42 70 49 19 2 24 -1 22 -14 -2 -10 2 -18 9 -18 8 0 9 11
5 31 -3 17 -6 38 -6 45 0 8 -4 14 -10 14 -5 0 -7 -6 -4 -14 3 -8 -4 -16 -18
-20 -39 -10 -66 -7 -72 10 -9 22 -8 23 17 17 l22 -5 -22 16 c-33 24 -29 34 20
47 51 15 51 15 43 28 -4 6 -21 5 -49 -5 -38 -14 -43 -13 -54 3 -17 22 -16 34
1 27 19 -7 93 31 77 40 -6 4 -11 3 -11 -2 0 -13 -56 -35 -69 -27 -21 12 -11
33 22 46 17 8 36 13 40 11 4 -1 3 7 -3 18 -10 18 -13 19 -26 6 -8 -8 -23 -18
-34 -21 -11 -3 -20 -13 -20 -21 0 -23 -14 -15 -37 22 -20 31 -21 33 -3 24 29
-15 37 -12 12 6 -29 20 -28 40 3 60 20 13 28 14 40 4 8 -7 15 -19 15 -27 0 -8
5 -11 10 -8 7 4 6 13 -1 26 -28 54 -120 31 -102 -25 3 -13 -14 -2 -51 31 -62
55 -143 99 -221 119 -61 17 -183 17 -250 0z m307 -36 c114 -43 220 -145 272
-262 20 -45 46 -147 46 -180 0 -4 -40 -8 -90 -8 -79 0 -90 2 -90 18 -1 71 -94
186 -161 197 -27 5 -48 1 -78 -14 -22 -12 -57 -21 -78 -21 -25 -1 -48 -9 -68
-25 l-30 -25 37 12 c21 6 36 14 34 17 -2 3 8 7 22 8 15 0 57 4 95 8 40 5 67 4
67 -2 0 -5 -19 -10 -42 -12 -24 -1 -44 -5 -46 -10 -1 -4 -16 -6 -32 -3 -16 2
-48 -3 -72 -11 -64 -23 -110 -29 -103 -14 3 6 -2 2 -11 -10 -10 -14 -27 -23
-43 -23 -17 0 -37 -10 -52 -27 -16 -18 -17 -22 -5 -13 18 14 19 13 13 -3 -4
-10 -7 -20 -7 -22 0 -2 -12 -2 -26 1 -14 3 -23 1 -20 -5 3 -5 -1 -12 -10 -15
-10 -4 -13 -2 -8 7 5 9 4 9 -7 0 -8 -9 -45 -13 -102 -13 l-89 0 7 43 c38 241
208 411 435 436 76 8 174 -3 242 -29z m4 -256 c19 -9 34 -21 34 -26 0 -6 -6
-6 -14 1 -8 6 -37 14 -66 18 -33 4 -47 9 -38 14 20 13 46 11 84 -7z m35 -36
c9 0 27 -10 40 -24 24 -26 52 -94 39 -94 -14 0 -70 51 -70 63 0 7 -14 25 -32
40 -22 19 -26 26 -13 22 11 -4 27 -7 36 -7z m-124 -53 c39 -8 49 -21 33 -40
-14 -17 -76 -20 -85 -5 -4 6 -15 8 -26 5 -24 -8 -25 3 -1 21 14 11 14 13 2 14
-13 0 -13 1 0 10 8 5 22 8 30 6 8 -3 30 -7 47 -11z m-161 -14 c-3 -4 -24 -11
-47 -14 -52 -7 -82 -33 -74 -64 7 -28 -11 -31 -20 -4 -8 28 14 58 55 75 39 16
94 21 86 7z m-40 -57 c-11 -8 -25 -14 -30 -14 -6 0 -3 7 7 14 9 7 17 19 17 27
0 10 2 11 13 0 10 -10 8 -15 -7 -27z m334 -8 c0 -15 7 -26 18 -28 9 -3 -2 -6
-25 -9 -42 -4 -58 6 -28 17 8 4 15 15 15 25 0 10 5 19 10 19 6 0 10 -11 10
-24z m-75 -6 c-16 -18 -20 -19 -27 -6 -5 8 -15 13 -23 10 -8 -4 -15 -1 -15 5
0 6 18 11 42 11 41 0 41 0 23 -20z m-173 -33 c4 -6 4 -15 1 -21 -3 -5 -1 -6 6
-2 6 4 9 12 6 17 -4 5 5 13 19 19 31 11 70 -1 84 -27 10 -16 32 -19 209 -24
239 -6 242 -11 6 -9 l-173 1 0 -61 0 -60 165 0 164 0 -8 -22 c-8 -22 -12 -23
-117 -20 -60 2 -139 -2 -175 -9 -54 -9 -78 -9 -130 2 -46 11 -82 12 -129 6
-43 -6 -85 -5 -126 3 -45 8 -72 9 -100 1 -22 -6 -60 -11 -85 -11 -39 0 -47 4
-57 25 l-12 25 155 0 155 0 0 59 0 59 -165 1 c-91 0 -164 4 -163 8 2 4 82 8
179 8 l176 0 -5 -65 -4 -65 88 -1 c83 -1 85 0 34 7 -30 5 -65 6 -78 4 -22 -6
-23 -4 -20 72 3 71 5 78 28 90 26 13 60 8 72 -10z m552 -145 c3 -4 -8 -13 -24
-19 -28 -10 -29 -10 -20 8 11 19 35 25 44 11z m-746 -76 c42 -12 66 -12 112
-4 46 9 75 8 130 -2 58 -11 84 -11 155 0 67 10 97 11 136 2 28 -7 66 -12 85
-12 32 0 33 -1 22 -21 -11 -18 -19 -20 -58 -13 -45 7 -110 8 -250 3 -41 -1
-102 1 -135 5 -38 5 -75 4 -100 -3 -31 -8 -52 -7 -99 5 -56 14 -66 14 -124 -1
-60 -17 -64 -17 -82 0 -28 25 -25 38 8 31 15 -3 50 0 77 8 64 18 61 18 123 2z
m77 -56 c81 5 136 3 202 -5 40 -5 85 -3 125 5 50 9 77 9 135 -1 40 -7 73 -16
73 -20 0 -3 -7 -12 -15 -19 -11 -10 -25 -9 -66 0 -42 10 -68 10 -135 0 -53 -8
-99 -10 -131 -5 -49 9 -113 11 -193 5 -25 -1 -73 1 -107 5 -39 5 -73 4 -94 -4
-31 -11 -59 -2 -59 19 0 15 87 29 150 23 36 -3 88 -4 115 -3z m-75 -51 c38 -8
68 -8 113 1 52 9 74 8 131 -5 38 -9 81 -13 95 -10 75 19 136 24 183 14 41 -9
47 -13 37 -26 -9 -11 -24 -13 -59 -8 -28 4 -71 1 -111 -8 -50 -12 -76 -13
-119 -4 -55 10 -100 12 -195 8 -67 -4 -200 5 -214 13 -45 28 47 45 139 25z
m-1 -51 c39 -9 66 -9 115 0 53 10 74 9 131 -5 57 -14 77 -15 124 -5 32 7 82
12 112 12 l54 0 -25 -20 c-14 -11 -38 -20 -54 -20 -17 0 -56 -5 -88 -12 -48
-10 -69 -9 -124 4 -55 13 -76 14 -123 4 -48 -10 -70 -9 -133 5 -83 18 -101 26
-93 40 8 12 43 11 104 -3z m81 -58 c25 3 74 3 110 1 133 -6 186 -6 230 1 l45
8 -55 -26 c-62 -30 -103 -33 -179 -13 -41 10 -63 11 -110 1 -56 -12 -62 -11
-113 13 l-53 25 40 -7 c22 -4 60 -5 85 -3z m155 -44 l50 -14 -61 -1 c-34 -1
-77 2 -95 6 l-34 7 30 7 c46 10 56 10 110 -5z"/>
<path d="M1020 1375 c0 -26 22 -85 31 -80 6 4 6 13 -1 24 -6 12 -5 22 3 31 9
10 9 11 0 6 -6 -3 -16 2 -22 11 -6 10 -11 14 -11 8z"/>
<path d="M1114 1326 l-1 -41 13 30 c17 38 17 52 2 52 -8 0 -13 -16 -14 -41z"/>
<path d="M1078 1341 c11 -7 11 -9 -1 -14 -10 -4 -13 -13 -10 -26 4 -14 1 -21
-10 -21 -9 0 -17 -14 -20 -37 -8 -44 0 -55 19 -29 11 16 11 21 1 28 -8 5 -7 8
6 8 14 0 16 -7 12 -41 -3 -25 -1 -38 5 -34 6 3 11 23 12 43 l1 37 4 -33 c5
-36 39 -80 46 -59 2 7 -2 29 -9 51 -8 21 -11 42 -8 48 3 5 -4 12 -16 15 -19 5
-21 11 -17 39 5 27 2 34 -11 34 -13 0 -14 -2 -4 -9z"/>
<path d="M1331 1065 c9 -11 21 -29 27 -40 6 -11 12 -14 12 -8 0 7 -12 25 -27
41 -16 15 -21 19 -12 7z"/>
<path d="M1192 870 c0 -14 2 -19 5 -12 2 6 2 18 0 25 -3 6 -5 1 -5 -13z"/>
<path d="M1070 840 c0 -5 5 -10 11 -10 5 0 7 5 4 10 -3 6 -8 10 -11 10 -2 0
-4 -4 -4 -10z"/>
<path d="M1150 770 c14 -4 34 -8 45 -8 16 0 15 2 -5 8 -14 4 -34 8 -45 8 -16
0 -15 -2 5 -8z"/>
<path d="M930 743 c0 -5 48 -7 107 -5 193 4 211 8 51 10 -87 1 -158 -1 -158
-5z"/>
<path d="M1462 1359 c-43 -49 -23 -62 22 -15 22 24 30 39 22 44 -7 6 -23 -5
-44 -29z"/>
<path d="M605 1349 c-4 -6 -5 -12 -4 -13 61 -45 77 -55 83 -49 7 7 -52 73 -65
73 -4 0 -11 -5 -14 -11z"/>
<path d="M560 1295 c-19 -23 -8 -50 20 -49 14 1 33 4 43 9 12 5 17 3 17 -9 0
-9 -10 -21 -22 -26 -16 -6 -18 -9 -7 -9 22 -1 42 24 37 46 -4 19 -37 23 -70 8
-12 -4 -18 -3 -18 5 0 6 9 14 20 17 11 3 17 9 14 14 -8 13 -20 11 -34 -6z"/>
<path d="M523 1212 c-12 -8 -36 -52 -31 -57 2 -1 22 -12 45 -23 31 -16 42 -18
46 -9 3 8 -11 20 -34 30 -21 9 -39 21 -39 27 0 16 28 12 38 -6 6 -11 16 -13
35 -9 34 9 36 29 2 23 -16 -3 -25 -1 -25 7 0 16 -23 26 -37 17z"/>
<path d="M471 1092 c-18 -34 -13 -57 12 -60 56 -7 70 -6 74 6 3 7 1 12 -4 11
-20 -3 -59 2 -72 10 -12 8 -13 12 -1 25 7 9 10 19 7 22 -3 3 -10 -3 -16 -14z"/>
<path d="M551 1083 c7 -10 15 -20 16 -22 2 -2 3 3 3 11 0 9 -7 19 -16 22 -15
6 -15 4 -3 -11z"/>
<path d="M500 1070 c20 -13 33 -13 25 0 -3 6 -14 10 -23 10 -15 0 -15 -2 -2
-10z"/>
<path d="M450 992 c0 -4 15 -13 33 -20 l32 -13 -25 -14 c-14 -7 -28 -11 -32
-9 -5 3 -8 -4 -8 -15 0 -19 1 -19 38 -1 20 9 44 19 52 22 9 3 -5 15 -37 32
-29 14 -53 23 -53 18z"/>
<path d="M530 880 c-8 -5 -30 -10 -47 -10 -21 0 -33 -5 -33 -14 0 -10 11 -12
48 -8 55 5 55 6 50 26 -2 11 -7 13 -18 6z"/>
<path d="M498 808 c-21 -6 -38 -14 -38 -19 0 -6 9 -5 21 1 28 15 36 5 16 -18
-10 -10 -17 -25 -17 -34 0 -12 8 -13 50 -4 28 5 50 14 50 19 0 5 -7 6 -16 3
-9 -3 -28 -9 -42 -13 l-26 -6 33 41 c34 44 31 47 -31 30z"/>
<path d="M528 692 c-16 -10 -28 -20 -28 -24 0 -4 16 2 35 13 34 21 65 20 65
-1 0 -6 -17 -18 -37 -27 -49 -23 -48 -22 -36 -34 14 -14 83 27 83 50 0 40 -36
50 -82 23z"/>
<path d="M763 441 c-24 -14 -43 -30 -43 -35 0 -4 7 -3 15 4 8 6 20 8 26 4 7
-4 9 -3 5 4 -3 6 -2 13 4 17 6 3 9 -9 7 -31 -1 -24 3 -39 12 -42 8 -2 11 -1 8
4 -3 5 -1 29 3 54 5 25 8 45 7 46 -1 1 -21 -11 -44 -25z"/>
<path d="M1390 455 c0 -8 8 -19 18 -25 12 -8 13 -13 5 -16 -7 -3 -13 -17 -13
-32 0 -14 3 -22 7 -18 4 4 8 15 8 24 0 12 8 17 27 17 42 0 40 9 -7 38 -33 19
-45 23 -45 12z"/>
<path d="M1300 424 c-31 -13 -46 -23 -34 -24 11 0 25 5 32 12 11 11 12 10 41
-64 4 -11 11 -14 19 -9 11 7 10 17 -8 51 l-22 43 21 -6 c12 -3 21 -1 21 3 0
18 -17 16 -70 -6z"/>
<path d="M840 425 c0 -9 -7 -29 -15 -46 -15 -28 -15 -30 10 -41 29 -13 62 0
57 22 -1 7 3 19 9 27 14 17 -2 37 -38 48 -17 5 -23 2 -23 -10z m42 -20 c0 -5
-5 -11 -11 -13 -6 -2 -11 4 -11 13 0 9 5 15 11 13 6 -2 11 -8 11 -13z m-12
-39 c0 -16 -18 -31 -27 -22 -8 8 5 36 17 36 5 0 10 -6 10 -14z"/>
<path d="M917 378 c-3 -18 -8 -41 -12 -50 -5 -13 -2 -18 9 -18 9 0 16 8 16 20
0 22 16 27 22 8 3 -7 7 -3 10 9 4 16 2 20 -9 16 -11 -4 -14 0 -11 17 5 37 -19
34 -25 -2z"/>
<path d="M966 393 c5 -5 12 -12 16 -18 4 -6 8 -2 8 8 0 9 -7 17 -17 17 -9 0
-12 -3 -7 -7z"/>
<path d="M1206 392 c-9 -15 14 -80 30 -86 22 -8 54 11 53 32 0 9 -4 26 -9 37
-7 15 -8 10 -4 -16 4 -28 2 -38 -10 -42 -17 -7 -36 26 -39 66 -1 18 -12 23
-21 9z"/>
<path d="M1004 365 c-14 -21 -15 -31 -6 -50 17 -37 27 -30 27 17 0 36 3 43 20
43 24 0 34 -48 14 -71 -14 -17 2 -19 19 -2 15 15 15 61 0 76 -20 20 -56 14
-74 -13z"/>
<path d="M1115 382 c-5 -4 -10 -28 -10 -53 0 -38 3 -45 16 -42 11 3 15 12 12
24 -7 25 9 24 25 -1 7 -11 22 -20 35 -20 19 1 20 2 7 13 -38 31 -44 46 -25 67
10 11 15 20 10 20 -4 0 -17 -12 -29 -27 l-21 -27 -5 27 c-3 15 -9 23 -15 19z"/>
<path d="M955 310 c-19 -8 -19 -9 3 -9 12 -1 22 4 22 9 0 6 -1 10 -2 9 -2 0
-12 -4 -23 -9z"/>
<path d="M75 790 c-3 -5 -2 -10 4 -10 9 0 111 -60 111 -65 0 -2 -33 -10 -72
-20 -105 -24 -109 -27 -49 -36 103 -14 151 -80 151 -211 0 -158 61 -220 145
-147 l35 31 -20 32 c-12 17 -38 64 -58 104 -20 39 -42 72 -49 72 -7 0 -10 -7
-6 -17 5 -14 3 -16 -7 -6 -14 12 -7 43 9 43 14 0 33 -29 92 -135 102 -184 299
-325 535 -381 103 -25 296 -23 404 5 111 27 252 97 342 170 95 76 104 87 176
211 34 58 66 111 72 118 15 17 30 6 30 -21 1 -20 2 -20 11 -4 6 10 9 30 7 44
-3 24 -9 29 -48 36 -25 5 -57 18 -72 28 -49 35 -49 35 -137 -101 -167 -261
-496 -384 -793 -295 -28 8 -85 32 -127 52 -96 48 -229 175 -290 280 -24 40
-51 75 -61 78 -10 3 -39 -6 -65 -20 -27 -14 -58 -25 -70 -25 -57 0 -53 -37 21
-178 39 -74 46 -96 38 -110 -6 -9 -18 -18 -26 -20 -17 -3 -48 23 -48 40 0 6 8
0 18 -12 20 -25 42 -20 42 9 0 9 -22 61 -50 115 -69 135 -67 155 19 175 64 14
70 24 42 76 -29 54 -49 73 -98 91 -45 15 -149 18 -158 4z m1699 -253 c-2 -7 7
-19 21 -27 14 -7 25 -17 25 -22 0 -12 -8 -10 -35 8 -13 9 -29 13 -35 9 -13 -8
-13 1 2 25 14 22 30 27 22 7z m-1354 -12 c-10 -13 -9 -15 8 -15 12 0 24 -5 28
-12 5 -8 0 -9 -14 -6 -12 4 -22 3 -22 -1 0 -4 -7 -16 -16 -27 -15 -18 -15 -18
-9 10 5 22 3 27 -9 23 -27 -11 -26 6 1 25 34 22 50 23 33 3z m1347 -60 l28
-24 -35 -1 c-33 -1 -34 -2 -16 -15 11 -8 16 -18 13 -22 -8 -7 -57 35 -57 50 0
5 14 7 33 3 l32 -6 -25 20 c-14 11 -20 20 -13 20 7 0 25 -11 40 -25z m-1301
-17 c-5 -25 -4 -30 6 -20 24 24 31 12 8 -13 -32 -34 -44 -32 -36 7 6 31 6 31
-14 13 -11 -10 -20 -13 -20 -7 0 10 47 52 58 52 2 0 2 -14 -2 -32z m1214 -43
c-8 -9 -8 -15 -2 -15 6 0 14 5 17 10 3 6 11 10 17 10 6 0 4 -8 -5 -18 -22 -24
-9 -37 15 -15 23 20 24 6 1 -19 -16 -18 -17 -18 -45 9 -26 25 -27 28 -11 45
19 21 32 15 13 -7z m-1140 -24 c0 -10 -9 -26 -20 -36 -19 -17 -21 -17 -40 0
-25 23 -25 30 0 55 16 16 25 18 40 10 11 -6 20 -19 20 -29z m1135 -31 c16 -16
24 -30 17 -30 -6 0 -16 8 -22 18 -8 14 -9 11 -4 -12 6 -27 6 -28 -17 -16 -20
10 -22 10 -11 -1 23 -25 12 -33 -13 -9 -25 24 -33 50 -16 50 6 0 13 -4 16 -10
12 -19 26 -11 15 9 -22 42 -4 42 35 1z m-1119 -5 c-11 -16 -12 -25 -5 -25 8 0
8 -5 -1 -15 -8 -10 -17 -12 -23 -6 -10 10 21 71 36 71 5 0 2 -11 -7 -25z m44
-14 c0 -6 -4 -13 -10 -16 -5 -3 -10 -11 -10 -17 0 -7 5 -6 15 2 8 7 22 9 31 6
15 -6 15 -8 -1 -32 -13 -20 -14 -28 -4 -40 19 -23 4 -27 -16 -4 -17 19 -17 21
-2 38 26 29 20 35 -12 13 -31 -23 -46 -18 -31 10 6 10 10 22 9 26 -3 17 2 23
16 23 8 0 15 -4 15 -9z m1005 -21 c4 -6 2 -17 -4 -24 -6 -7 -9 -21 -5 -30 9
-24 -4 -19 -31 12 -17 19 -20 30 -13 40 13 15 44 16 53 2z m-51 -52 c27 -39
-18 -80 -52 -46 -13 13 -16 50 -5 61 13 14 42 6 57 -15z m-843 -4 c12 -15 11
-16 -11 -9 -25 8 -25 8 -6 -14 19 -21 9 -30 -11 -10 -8 8 -13 8 -18 0 -3 -6 1
-14 9 -17 16 -6 22 -24 9 -24 -5 0 -16 7 -26 15 -18 13 -18 15 -1 44 21 35 35
39 55 15z m54 -34 c17 -18 17 -21 1 -45 -19 -29 -25 -30 -50 -12 -17 13 -17
15 -2 45 19 37 27 39 51 12z m697 -15 c8 -19 17 -24 32 -20 21 6 21 6 2 -9
-27 -22 -32 -20 -46 13 -11 27 -14 29 -36 19 -28 -13 -23 -28 9 -21 21 4 21 3
-3 -11 -25 -15 -21 -20 14 -16 24 2 13 -16 -14 -23 -16 -4 -23 1 -31 19 -14
40 -11 52 19 62 39 15 41 14 54 -13z m-617 -16 c4 -6 4 -13 0 -17 -3 -3 -10 0
-15 8 -8 13 -12 13 -27 -2 -16 -17 -16 -19 1 -35 18 -17 19 -17 13 0 -4 11 -1
17 9 17 21 0 14 -34 -7 -38 -9 -2 -24 4 -32 13 -13 13 -14 21 -5 40 12 26 51
35 63 14z m525 -28 c0 -51 -14 -59 -40 -22 -15 19 -28 27 -41 24 -10 -3 -19
-10 -19 -15 0 -5 9 -6 20 -3 11 4 20 2 20 -4 0 -6 -6 -11 -14 -11 -8 0 -18 -5
-22 -11 -5 -8 1 -10 20 -7 34 7 34 -8 0 -16 -32 -8 -30 -10 -38 36 -6 35 -5
37 26 43 26 6 35 3 50 -15 l18 -22 0 31 c0 17 5 31 10 31 6 0 10 -18 10 -39z
m-460 8 c12 -9 11 -10 -7 -6 -13 3 -26 1 -29 -4 -3 -5 2 -9 10 -9 8 0 18 -5
22 -12 5 -8 0 -9 -14 -6 -28 8 -39 -8 -12 -17 26 -8 26 -25 0 -18 -28 7 -33
18 -25 53 7 31 28 39 55 19z m119 -20 c13 1 30 -4 37 -10 10 -9 14 -9 14 0 0
17 57 13 63 -4 4 -8 2 -17 -4 -21 -6 -4 -6 -11 2 -20 6 -8 9 -18 5 -22 -4 -4
-12 1 -17 11 -12 21 -29 22 -29 1 0 -8 -4 -13 -10 -9 -5 3 -7 13 -4 23 3 11 0
10 -12 -5 -20 -28 -50 -30 -64 -3 -12 23 -50 27 -50 5 0 -8 -5 -15 -11 -15 -7
0 -9 9 -5 23 3 12 6 30 6 41 0 15 5 17 28 12 15 -4 38 -7 51 -7z m213 -13 c14
-33 4 -56 -25 -56 -19 0 -26 7 -31 31 -3 17 -3 35 0 40 11 18 45 9 56 -15z"/>
<path d="M483 384 c-3 -8 -1 -20 6 -27 14 -14 47 15 37 32 -10 16 -36 13 -43
-5z"/>
<path d="M1565 301 c-6 -11 9 -23 19 -14 9 9 7 23 -3 23 -6 0 -12 -4 -16 -9z"/>
<path d="M1517 263 c-15 -15 -6 -43 13 -43 11 0 20 6 20 14 0 17 -24 38 -33
29z"/>
<path d="M731 202 c-15 -27 -14 -32 4 -32 20 0 31 28 17 42 -7 7 -14 4 -21
-10z"/>
<path d="M971 137 c2 -1 12 -9 22 -16 14 -12 17 -11 17 3 0 10 -8 16 -22 16
-12 0 -19 -1 -17 -3z"/>
<path d="M1027 134 c-16 -16 -7 -44 14 -44 15 0 20 5 17 22 -3 22 -19 33 -31
22z"/>
<path d="M1100 120 c0 -5 7 -7 15 -4 8 4 15 8 15 10 0 2 -7 4 -15 4 -8 0 -15
-4 -15 -10z"/>
<path d="M1200 114 c0 -31 23 -28 28 4 2 15 -2 22 -12 22 -11 0 -16 -9 -16
-26z"/>
<path d="M1924 781 c-36 -22 -78 -73 -93 -113 -9 -23 -7 -27 17 -36 15 -6 42
-14 60 -17 64 -13 63 -46 -12 -191 -25 -50 -46 -96 -46 -102 0 -23 22 -23 46
-1 13 12 24 18 24 12 0 -17 -38 -45 -57 -41 -31 6 -27 47 16 128 26 50 38 84
34 98 -5 21 -23 31 -23 14 0 -4 -24 -49 -54 -99 l-54 -91 32 -31 c41 -40 86
-42 115 -5 24 31 31 62 34 169 5 125 38 168 146 190 l54 11 -82 19 c-45 10
-84 21 -86 25 -2 3 23 21 56 39 32 18 59 34 59 37 0 2 -35 4 -77 4 -59 0 -86
-5 -109 -19z"/>
</g>
</svg>
