<?xml version="1.0" standalone="no"?>
<!DOCTYPE svg PUBLIC "-//W3C//DTD SVG 20010904//EN"
 "http://www.w3.org/TR/2001/REC-SVG-20010904/DTD/svg10.dtd">
<svg version="1.0" xmlns="http://www.w3.org/2000/svg"
 width="225.000000pt" height="225.000000pt" viewBox="0 0 225.000000 225.000000"
 preserveAspectRatio="xMidYMid meet">

<g transform="translate(0.000000,225.000000) scale(0.100000,-0.100000)"
fill="#000000" stroke="none">
<path d="M955 1935 c-290 -64 -521 -272 -616 -555 -41 -121 -51 -289 -26 -412
82 -395 414 -668 812 -668 458 0 825 367 825 825 0 394 -272 728 -660 810 -86
18 -253 18 -335 0z m405 -84 c256 -86 432 -276 511 -551 8 -26 13 -100 13
-175 1 -109 -3 -142 -23 -205 -82 -264 -267 -449 -531 -531 -108 -34 -302 -34
-410 0 -258 80 -435 251 -522 501 -31 90 -32 103 -32 235 0 132 1 145 32 235
93 268 298 451 577 516 39 9 101 12 175 10 97 -3 130 -8 210 -35z"/>
<path d="M779 1471 c-32 -33 -36 -58 -14 -100 37 -73 155 -46 155 36 0 45 -9
62 -41 78 -42 22 -67 18 -100 -14z"/>
<path d="M750 1000 l0 -250 85 0 85 0 0 250 0 250 -85 0 -85 0 0 -250z"/>
<path d="M1030 1000 l0 -250 69 0 70 0 3 165 c3 150 5 166 24 185 11 11 36 23
55 26 29 5 41 1 65 -19 l29 -25 3 -166 3 -166 76 0 75 0 -4 188 c-4 210 -14
250 -75 285 -70 40 -193 30 -239 -20 l-24 -26 0 37 0 36 -65 0 -65 0 0 -250z"/>
</g>
</svg>
